# Blender 4.5.3 LTS
# www.blender.org
mtllib TrackWallPiece.mtl
o Cube
v 0.500000 -1.000000 -0.000000
v 0.500000 0.207583 -0.000000
v -0.500000 -1.000000 -0.000000
v -0.500000 1.000000 0.000000
v 0.499996 -0.999992 -50.000000
v 0.499996 0.207591 -50.000000
v -0.500004 -0.999992 -50.000000
v -0.500004 1.000008 -50.000000
v -0.500004 -0.999994 -45.454544
v -0.500004 -0.999994 -40.909092
v -0.500003 -0.999994 -36.363636
v -0.500003 -0.999996 -31.818180
v -0.500002 -0.999996 -27.272726
v -0.500002 -0.999996 -22.727272
v -0.500002 -0.999998 -18.181818
v -0.500001 -0.999998 -13.636363
v -0.500001 -0.999998 -9.090909
v -0.500000 -1.000000 -4.545454
v -0.500000 1.000000 -4.545454
v -0.500001 1.000002 -9.090909
v -0.500001 1.000002 -13.636364
v -0.500002 1.000003 -18.181820
v -0.500002 1.000004 -22.727274
v -0.500002 1.000004 -27.272728
v -0.500003 1.000005 -31.818182
v -0.500003 1.000006 -36.363636
v -0.500004 1.000006 -40.909092
v -0.500004 1.000008 -45.454544
v 0.500000 -1.000000 -4.545454
v 0.499999 -0.999998 -9.090909
v 0.499999 -0.999998 -13.636364
v 0.499998 -0.999998 -18.181820
v 0.499998 -0.999996 -22.727274
v 0.499998 -0.999996 -27.272728
v 0.499997 -0.999996 -31.818182
v 0.499997 -0.999994 -36.363636
v 0.499996 -0.999994 -40.909092
v 0.499996 -0.999994 -45.454544
v 0.499996 0.207589 -45.454544
v 0.499996 0.207589 -40.909092
v 0.499997 0.207589 -36.363636
v 0.499997 0.207587 -31.818180
v 0.499998 0.207587 -27.272726
v 0.499998 0.207587 -22.727272
v 0.499998 0.207585 -18.181818
v 0.499999 0.207585 -13.636363
v 0.499999 0.207585 -9.090909
v 0.500000 0.207583 -4.545454
vn -1.0000 -0.0000 -0.0000
vn 1.0000 -0.0000 -0.0000
vn 0.6211 0.7838 -0.0000
vt 0.625000 0.477273
vt 0.375000 0.500000
vt 0.375000 0.477273
vt 0.625000 0.977273
vt 0.375000 1.000000
vt 0.375000 0.977273
vt 0.875000 0.500000
vt 0.852273 0.750000
vt 0.852273 0.500000
vt 0.647727 0.500000
vt 0.625000 0.750000
vt 0.625000 0.500000
vt 0.670455 0.500000
vt 0.647727 0.750000
vt 0.693182 0.500000
vt 0.670455 0.750000
vt 0.715909 0.500000
vt 0.693182 0.750000
vt 0.738636 0.500000
vt 0.715909 0.750000
vt 0.761364 0.500000
vt 0.738636 0.750000
vt 0.784091 0.500000
vt 0.761364 0.750000
vt 0.806818 0.500000
vt 0.784091 0.750000
vt 0.829545 0.500000
vt 0.806818 0.750000
vt 0.829545 0.750000
vt 0.375000 0.772727
vt 0.375000 0.750000
vt 0.625000 0.772727
vt 0.375000 0.795455
vt 0.625000 0.795455
vt 0.375000 0.818182
vt 0.625000 0.818182
vt 0.375000 0.840909
vt 0.625000 0.840909
vt 0.375000 0.863636
vt 0.625000 0.863636
vt 0.375000 0.886364
vt 0.625000 0.886364
vt 0.375000 0.909091
vt 0.625000 0.909091
vt 0.375000 0.931818
vt 0.625000 0.931818
vt 0.375000 0.954545
vt 0.625000 0.954545
vt 0.625000 0.250000
vt 0.375000 0.272727
vt 0.375000 0.250000
vt 0.625000 0.272727
vt 0.375000 0.295455
vt 0.625000 0.295455
vt 0.375000 0.318182
vt 0.625000 0.318182
vt 0.375000 0.340909
vt 0.625000 0.340909
vt 0.375000 0.363636
vt 0.625000 0.363636
vt 0.375000 0.386364
vt 0.625000 0.386364
vt 0.375000 0.409091
vt 0.625000 0.409091
vt 0.375000 0.431818
vt 0.625000 0.431818
vt 0.375000 0.454545
vt 0.625000 0.454545
vt 0.625000 1.000000
vt 0.875000 0.750000
s 1
f 28/1/1 7/2/1 9/3/1
f 48/4/2 1/5/2 29/6/2
f 4/7/3 48/8/3 19/9/3
f 28/10/3 6/11/3 8/12/3
f 27/13/3 39/14/3 28/10/3
f 26/15/3 40/16/3 27/13/3
f 25/17/3 41/18/3 26/15/3
f 24/19/3 42/20/3 25/17/3
f 23/21/3 43/22/3 24/19/3
f 22/23/3 44/24/3 23/21/3
f 21/25/3 45/26/3 22/23/3
f 20/27/3 46/28/3 21/25/3
f 19/9/3 47/29/3 20/27/3
f 6/11/2 38/30/2 5/31/2
f 39/32/2 37/33/2 38/30/2
f 40/34/2 36/35/2 37/33/2
f 41/36/2 35/37/2 36/35/2
f 42/38/2 34/39/2 35/37/2
f 43/40/2 33/41/2 34/39/2
f 44/42/2 32/43/2 33/41/2
f 45/44/2 31/45/2 32/43/2
f 46/46/2 30/47/2 31/45/2
f 47/48/2 29/6/2 30/47/2
f 4/49/1 18/50/1 3/51/1
f 19/52/1 17/53/1 18/50/1
f 20/54/1 16/55/1 17/53/1
f 21/56/1 15/57/1 16/55/1
f 22/58/1 14/59/1 15/57/1
f 23/60/1 13/61/1 14/59/1
f 24/62/1 12/63/1 13/61/1
f 25/64/1 11/65/1 12/63/1
f 26/66/1 10/67/1 11/65/1
f 27/68/1 9/3/1 10/67/1
f 28/1/1 8/12/1 7/2/1
f 48/4/2 2/69/2 1/5/2
f 4/7/3 2/70/3 48/8/3
f 28/10/3 39/14/3 6/11/3
f 27/13/3 40/16/3 39/14/3
f 26/15/3 41/18/3 40/16/3
f 25/17/3 42/20/3 41/18/3
f 24/19/3 43/22/3 42/20/3
f 23/21/3 44/24/3 43/22/3
f 22/23/3 45/26/3 44/24/3
f 21/25/3 46/28/3 45/26/3
f 20/27/3 47/29/3 46/28/3
f 19/9/3 48/8/3 47/29/3
f 6/11/2 39/32/2 38/30/2
f 39/32/2 40/34/2 37/33/2
f 40/34/2 41/36/2 36/35/2
f 41/36/2 42/38/2 35/37/2
f 42/38/2 43/40/2 34/39/2
f 43/40/2 44/42/2 33/41/2
f 44/42/2 45/44/2 32/43/2
f 45/44/2 46/46/2 31/45/2
f 46/46/2 47/48/2 30/47/2
f 47/48/2 48/4/2 29/6/2
f 4/49/1 19/52/1 18/50/1
f 19/52/1 20/54/1 17/53/1
f 20/54/1 21/56/1 16/55/1
f 21/56/1 22/58/1 15/57/1
f 22/58/1 23/60/1 14/59/1
f 23/60/1 24/62/1 13/61/1
f 24/62/1 25/64/1 12/63/1
f 25/64/1 26/66/1 11/65/1
f 26/66/1 27/68/1 10/67/1
f 27/68/1 28/1/1 9/3/1
