# Blender 4.5.3 LTS
# www.blender.org
mtllib TrackPiece.mtl
o Cube
v -12.500000 -0.499998 12.500000
v -12.500000 0.500002 12.500000
v -12.500000 -0.500002 -12.500000
v -12.500000 0.499998 -12.500000
v 12.500000 -0.499998 12.500000
v 12.500000 0.500002 12.500000
v 12.500000 -0.500002 -12.500000
v 12.500000 0.499998 -12.500000
v -12.500000 -0.500000 0.000000
v -12.500000 0.500000 -0.000000
v 0.000000 -0.500002 -12.500000
v 0.000000 0.499998 -12.500000
v 12.500000 -0.500000 0.000000
v 12.500000 0.500000 -0.000000
v 0.000000 -0.499998 12.500000
v 0.000000 0.500002 12.500000
v 0.000000 0.500000 -0.000000
v 0.000000 -0.500000 0.000000
v -12.500000 -0.500000 6.250000
v -12.500000 0.000002 12.500000
v -12.500000 0.500000 -6.250000
v -12.500000 -0.000002 -12.500000
v -6.250000 -0.500002 -12.500000
v 6.250000 0.499998 -12.500000
v 12.500000 -0.000002 -12.500000
v 12.500000 -0.500000 -6.250000
v 12.500000 0.500000 6.250000
v 12.500000 0.000002 12.500000
v 6.250000 -0.499998 12.500000
v -6.250000 0.500002 12.500000
v -12.500000 -0.500000 -6.250000
v -12.500000 0.500000 6.250000
v 6.250000 -0.500002 -12.500000
v -6.250000 0.499998 -12.500000
v 12.500000 -0.500000 6.250000
v 12.500000 0.500000 -6.250000
v -6.250000 -0.499998 12.500000
v 6.250000 0.500002 12.500000
v 0.000000 0.500000 6.250000
v 0.000000 0.500000 -6.250000
v 6.250000 0.500000 -0.000000
v -6.250000 0.500000 -0.000000
v 0.000000 -0.500000 6.250000
v 0.000000 -0.500000 -6.250000
v -6.250000 -0.500000 0.000000
v 6.250000 -0.500000 0.000000
v 12.500000 0.000000 0.000000
v -12.500000 0.000000 0.000000
v -12.500000 0.000000 6.250000
v 12.500000 -0.000000 -6.250000
v 6.250000 -0.500000 -6.250000
v -6.250000 -0.500000 -6.250000
v -6.250000 -0.500000 6.250000
v -6.250000 0.500000 -6.250000
v 6.250000 0.500000 -6.250000
v 6.250000 0.500000 6.250000
v -6.250000 0.500000 6.250000
v 6.250000 -0.500000 6.250000
v 12.500000 0.000000 6.250000
v -12.500000 -0.000000 -6.250000
v -12.500000 -0.499998 9.375000
v -12.500000 0.250002 12.500000
v -12.500000 0.499998 -9.375000
v -12.500000 -0.250002 -12.500000
v -9.375000 -0.500002 -12.500000
v 9.375000 0.499998 -12.500000
v 12.500000 -0.250002 -12.500000
v 12.500000 -0.500002 -9.375000
v 12.500000 0.500002 9.375000
v 12.500000 -0.249998 12.500000
v 9.375000 -0.499998 12.500000
v -9.375000 0.500002 12.500000
v -12.500000 -0.500000 -3.125000
v -12.500000 0.500000 3.125000
v 3.125000 -0.500002 -12.500000
v -3.125000 0.499998 -12.500000
v 12.500000 -0.500000 3.125000
v 12.500000 0.500000 -3.125000
v -3.125000 -0.499998 12.500000
v 3.125000 0.500002 12.500000
v 0.000000 0.500002 9.375000
v 0.000000 0.500000 -3.125000
v 9.375000 0.500000 -0.000000
v -3.125000 0.500000 -0.000000
v 0.000000 -0.499998 9.375000
v 0.000000 -0.500000 -3.125000
v -9.375000 -0.500000 0.000000
v 3.125000 -0.500000 0.000000
v 12.500000 -0.250000 0.000000
v -12.500000 -0.250000 0.000000
v -12.500000 -0.500000 3.125000
v -12.500000 -0.249998 12.500000
v -12.500000 0.500000 -3.125000
v -12.500000 0.249998 -12.500000
v -3.125000 -0.500002 -12.500000
v 3.125000 0.499998 -12.500000
v 12.500000 0.249998 -12.500000
v 12.500000 -0.500000 -3.125000
v 12.500000 0.500000 3.125000
v 12.500000 0.250002 12.500000
v 3.125000 -0.499998 12.500000
v -3.125000 0.500002 12.500000
v -12.500000 -0.500002 -9.375000
v -12.500000 0.500002 9.375000
v 9.375000 -0.500002 -12.500000
v -9.375000 0.499998 -12.500000
v 12.500000 -0.499998 9.375000
v 12.500000 0.499998 -9.375000
v -9.375000 -0.499998 12.500000
v 9.375000 0.500002 12.500000
v 0.000000 0.500000 3.125000
v 0.000000 0.499998 -9.375000
v 3.125000 0.500000 -0.000000
v -9.375000 0.500000 -0.000000
v 0.000000 -0.500000 3.125000
v 0.000000 -0.500002 -9.375000
v -3.125000 -0.500000 0.000000
v 9.375000 -0.500000 0.000000
v 12.500000 0.250000 -0.000000
v -12.500000 0.250000 -0.000000
v -12.500000 0.000000 3.125000
v -12.500000 0.000002 9.375000
v -12.500000 -0.250000 6.250000
v -12.500000 0.250000 6.250000
v 12.500000 -0.000000 -3.125000
v 12.500000 -0.000002 -9.375000
v 12.500000 -0.250000 -6.250000
v 12.500000 0.250000 -6.250000
v 6.250000 -0.500000 -3.125000
v 6.250000 -0.500002 -9.375000
v 3.125000 -0.500000 -6.250000
v 9.375000 -0.500000 -6.250000
v -6.250000 -0.500000 -3.125000
v -6.250000 -0.500002 -9.375000
v -9.375000 -0.500000 -6.250000
v -3.125000 -0.500000 -6.250000
v -6.250000 -0.499998 9.375000
v -6.250000 -0.500000 3.125000
v -9.375000 -0.500000 6.250000
v -3.125000 -0.500000 6.250000
v -6.250000 0.500000 -3.125000
v -6.250000 0.499998 -9.375000
v -3.125000 0.500000 -6.250000
v -9.375000 0.500000 -6.250000
v 6.250000 0.500000 -3.125000
v 6.250000 0.499998 -9.375000
v 9.375000 0.500000 -6.250000
v 3.125000 0.500000 -6.250000
v 6.250000 0.500002 9.375000
v 6.250000 0.500000 3.125000
v 9.375000 0.500000 6.250000
v 3.125000 0.500000 6.250000
v -6.250000 0.500002 9.375000
v -6.250000 0.500000 3.125000
v -3.125000 0.500000 6.250000
v -9.375000 0.500000 6.250000
v 6.250000 -0.499998 9.375000
v 6.250000 -0.500000 3.125000
v 3.125000 -0.500000 6.250000
v 9.375000 -0.500000 6.250000
v 12.500000 0.000002 9.375000
v 12.500000 0.000000 3.125000
v 12.500000 -0.250000 6.250000
v 12.500000 0.250000 6.250000
v -12.500000 -0.000002 -9.375000
v -12.500000 -0.000000 -3.125000
v -12.500000 -0.250000 -6.250000
v -12.500000 0.250000 -6.250000
v -12.500000 0.250000 -3.125000
v -12.500000 -0.250000 -3.125000
v -12.500000 -0.250002 -9.375000
v 12.500000 0.250000 3.125000
v 12.500000 -0.250000 3.125000
v 12.500000 -0.249998 9.375000
v 9.375000 -0.500000 3.125000
v 3.125000 -0.500000 3.125000
v 3.125000 -0.499998 9.375000
v -9.375000 0.500000 3.125000
v -3.125000 0.500000 3.125000
v -3.125000 0.500002 9.375000
v 3.125000 0.500000 3.125000
v 9.375000 0.500000 3.125000
v 9.375000 0.500002 9.375000
v 3.125000 0.499998 -9.375000
v 9.375000 0.499998 -9.375000
v 9.375000 0.500000 -3.125000
v -9.375000 0.499998 -9.375000
v -3.125000 0.499998 -9.375000
v -3.125000 0.500000 -3.125000
v -3.125000 -0.500000 3.125000
v -9.375000 -0.500000 3.125000
v -9.375000 -0.499998 9.375000
v -3.125000 -0.500002 -9.375000
v -9.375000 -0.500002 -9.375000
v -9.375000 -0.500000 -3.125000
v 9.375000 -0.500002 -9.375000
v 3.125000 -0.500002 -9.375000
v 3.125000 -0.500000 -3.125000
v 12.500000 0.249998 -9.375000
v 12.500000 -0.250002 -9.375000
v 12.500000 -0.250000 -3.125000
v -12.500000 0.250002 9.375000
v -12.500000 -0.249998 9.375000
v -12.500000 -0.250000 3.125000
v -12.500000 0.250000 3.125000
v 12.500000 0.250000 -3.125000
v 9.375000 -0.500000 -3.125000
v -3.125000 -0.500000 -3.125000
v -3.125000 -0.499998 9.375000
v -9.375000 0.500000 -3.125000
v 3.125000 0.500000 -3.125000
v 3.125000 0.500002 9.375000
v -9.375000 0.500002 9.375000
v 9.375000 -0.499998 9.375000
v 12.500000 0.250002 9.375000
v -12.500000 0.249998 -9.375000
vn -1.0000 -0.0000 -0.0000
vn 1.0000 -0.0000 -0.0000
vn -0.0000 -1.0000 -0.0000
vn -0.0000 1.0000 -0.0000
vt 0.625000 0.218750
vt 0.562500 0.250000
vt 0.562500 0.218750
vt 0.625000 0.718750
vt 0.562500 0.750000
vt 0.562500 0.718750
vt 0.375000 0.718750
vt 0.343750 0.750000
vt 0.343750 0.718750
vt 0.875000 0.718750
vt 0.843750 0.750000
vt 0.843750 0.718750
vt 0.750000 0.718750
vt 0.718750 0.750000
vt 0.718750 0.718750
vt 0.750000 0.593750
vt 0.718750 0.625000
vt 0.718750 0.593750
vt 0.875000 0.593750
vt 0.843750 0.625000
vt 0.843750 0.593750
vt 0.250000 0.718750
vt 0.218750 0.750000
vt 0.218750 0.718750
vt 0.250000 0.593750
vt 0.218750 0.625000
vt 0.218750 0.593750
vt 0.375000 0.593750
vt 0.343750 0.625000
vt 0.343750 0.593750
vt 0.625000 0.593750
vt 0.562500 0.625000
vt 0.562500 0.593750
vt 0.625000 0.093750
vt 0.562500 0.125000
vt 0.562500 0.093750
vt 0.500000 0.093750
vt 0.437500 0.125000
vt 0.437500 0.093750
vt 0.500000 0.031250
vt 0.437500 0.062500
vt 0.437500 0.031250
vt 0.625000 0.031250
vt 0.562500 0.062500
vt 0.562500 0.031250
vt 0.500000 0.593750
vt 0.437500 0.625000
vt 0.437500 0.593750
vt 0.500000 0.531250
vt 0.437500 0.562500
vt 0.437500 0.531250
vt 0.625000 0.531250
vt 0.562500 0.562500
vt 0.562500 0.531250
vt 0.312500 0.593750
vt 0.281250 0.625000
vt 0.281250 0.593750
vt 0.312500 0.531250
vt 0.281250 0.562500
vt 0.281250 0.531250
vt 0.375000 0.531250
vt 0.343750 0.562500
vt 0.343750 0.531250
vt 0.187500 0.593750
vt 0.156250 0.625000
vt 0.156250 0.593750
vt 0.187500 0.531250
vt 0.156250 0.562500
vt 0.156250 0.531250
vt 0.250000 0.531250
vt 0.218750 0.562500
vt 0.218750 0.531250
vt 0.187500 0.718750
vt 0.156250 0.750000
vt 0.156250 0.718750
vt 0.187500 0.656250
vt 0.156250 0.687500
vt 0.156250 0.656250
vt 0.250000 0.656250
vt 0.218750 0.687500
vt 0.218750 0.656250
vt 0.812500 0.593750
vt 0.781250 0.625000
vt 0.781250 0.593750
vt 0.812500 0.531250
vt 0.781250 0.562500
vt 0.781250 0.531250
vt 0.875000 0.531250
vt 0.843750 0.562500
vt 0.843750 0.531250
vt 0.687500 0.593750
vt 0.656250 0.625000
vt 0.656250 0.593750
vt 0.687500 0.531250
vt 0.656250 0.562500
vt 0.656250 0.531250
vt 0.750000 0.531250
vt 0.718750 0.562500
vt 0.718750 0.531250
vt 0.687500 0.718750
vt 0.656250 0.750000
vt 0.656250 0.718750
vt 0.687500 0.656250
vt 0.656250 0.687500
vt 0.656250 0.656250
vt 0.750000 0.656250
vt 0.718750 0.687500
vt 0.718750 0.656250
vt 0.812500 0.718750
vt 0.781250 0.750000
vt 0.781250 0.718750
vt 0.812500 0.656250
vt 0.781250 0.687500
vt 0.781250 0.656250
vt 0.875000 0.656250
vt 0.843750 0.687500
vt 0.843750 0.656250
vt 0.312500 0.718750
vt 0.281250 0.750000
vt 0.281250 0.718750
vt 0.312500 0.656250
vt 0.281250 0.687500
vt 0.281250 0.656250
vt 0.375000 0.656250
vt 0.343750 0.687500
vt 0.343750 0.656250
vt 0.500000 0.718750
vt 0.437500 0.750000
vt 0.437500 0.718750
vt 0.500000 0.656250
vt 0.437500 0.687500
vt 0.437500 0.656250
vt 0.625000 0.656250
vt 0.562500 0.687500
vt 0.562500 0.656250
vt 0.500000 0.218750
vt 0.437500 0.250000
vt 0.437500 0.218750
vt 0.500000 0.156250
vt 0.437500 0.187500
vt 0.437500 0.156250
vt 0.625000 0.156250
vt 0.562500 0.187500
vt 0.562500 0.156250
vt 0.500000 0.187500
vt 0.500000 0.125000
vt 0.625000 0.125000
vt 0.375000 0.187500
vt 0.375000 0.156250
vt 0.375000 0.125000
vt 0.375000 0.250000
vt 0.375000 0.218750
vt 0.500000 0.687500
vt 0.500000 0.625000
vt 0.625000 0.625000
vt 0.375000 0.687500
vt 0.375000 0.625000
vt 0.375000 0.750000
vt 0.312500 0.687500
vt 0.312500 0.625000
vt 0.250000 0.687500
vt 0.250000 0.625000
vt 0.250000 0.750000
vt 0.812500 0.687500
vt 0.812500 0.625000
vt 0.875000 0.625000
vt 0.750000 0.687500
vt 0.750000 0.625000
vt 0.750000 0.750000
vt 0.687500 0.687500
vt 0.687500 0.625000
vt 0.625000 0.687500
vt 0.625000 0.750000
vt 0.687500 0.562500
vt 0.718750 0.500000
vt 0.687500 0.500000
vt 0.750000 0.500000
vt 0.625000 0.562500
vt 0.656250 0.500000
vt 0.625000 0.500000
vt 0.812500 0.562500
vt 0.843750 0.500000
vt 0.812500 0.500000
vt 0.875000 0.500000
vt 0.750000 0.562500
vt 0.781250 0.500000
vt 0.187500 0.687500
vt 0.187500 0.625000
vt 0.125000 0.687500
vt 0.125000 0.656250
vt 0.125000 0.625000
vt 0.125000 0.750000
vt 0.125000 0.718750
vt 0.187500 0.562500
vt 0.218750 0.500000
vt 0.187500 0.500000
vt 0.250000 0.500000
vt 0.125000 0.562500
vt 0.125000 0.531250
vt 0.156250 0.500000
vt 0.125000 0.500000
vt 0.125000 0.593750
vt 0.312500 0.562500
vt 0.343750 0.500000
vt 0.312500 0.500000
vt 0.375000 0.500000
vt 0.250000 0.562500
vt 0.281250 0.500000
vt 0.500000 0.562500
vt 0.562500 0.500000
vt 0.500000 0.500000
vt 0.375000 0.562500
vt 0.437500 0.500000
vt 0.500000 0.062500
vt 0.562500 0.000000
vt 0.500000 0.000000
vt 0.625000 0.000000
vt 0.375000 0.062500
vt 0.375000 0.031250
vt 0.437500 0.000000
vt 0.375000 0.000000
vt 0.375000 0.093750
vt 0.625000 0.062500
vt 0.187500 0.750000
vt 0.875000 0.562500
vt 0.687500 0.750000
vt 0.812500 0.750000
vt 0.875000 0.687500
vt 0.312500 0.750000
vt 0.500000 0.750000
vt 0.500000 0.250000
vt 0.625000 0.187500
vt 0.625000 0.250000
vt 0.875000 0.750000
s 1
f 63/1/1 94/2/1 216/3/1
f 69/4/2 100/5/2 215/6/2
f 107/7/3 71/8/3 214/9/3
f 104/10/4 72/11/4 213/12/4
f 81/13/4 80/14/4 212/15/4
f 82/16/4 113/17/4 211/18/4
f 93/19/4 114/20/4 210/21/4
f 85/22/3 79/23/3 209/24/3
f 86/25/3 117/26/3 208/27/3
f 98/28/3 118/29/3 207/30/3
f 78/31/2 119/32/2 206/33/2
f 74/34/1 120/35/1 205/36/1
f 121/37/1 90/38/1 204/39/1
f 122/40/1 123/41/1 203/42/1
f 104/43/1 124/44/1 202/45/1
f 125/46/2 89/47/2 201/48/2
f 126/49/2 127/50/2 200/51/2
f 108/52/2 128/53/2 199/54/2
f 129/55/3 88/56/3 198/57/3
f 130/58/3 131/59/3 197/60/3
f 68/61/3 132/62/3 196/63/3
f 133/64/3 87/65/3 195/66/3
f 134/67/3 135/68/3 194/69/3
f 116/70/3 136/71/3 193/72/3
f 137/73/3 109/74/3 192/75/3
f 138/76/3 139/77/3 191/78/3
f 115/79/3 140/80/3 190/81/3
f 141/82/4 84/83/4 189/84/4
f 142/85/4 143/86/4 188/87/4
f 63/88/4 144/89/4 187/90/4
f 145/91/4 83/92/4 186/93/4
f 146/94/4 147/95/4 185/96/4
f 112/97/4 148/98/4 184/99/4
f 149/100/4 110/101/4 183/102/4
f 150/103/4 151/104/4 182/105/4
f 111/106/4 152/107/4 181/108/4
f 153/109/4 102/110/4 180/111/4
f 154/112/4 155/113/4 179/114/4
f 74/115/4 156/116/4 178/117/4
f 157/118/3 101/119/3 177/120/3
f 158/121/3 159/122/3 176/123/3
f 77/124/3 160/125/3 175/126/3
f 161/127/2 70/128/2 174/129/2
f 162/130/2 163/131/2 173/132/2
f 99/133/2 164/134/2 172/135/2
f 165/136/1 64/137/1 171/138/1
f 166/139/1 167/140/1 170/141/1
f 93/142/1 168/143/1 169/144/1
f 169/144/1 60/145/1 166/139/1
f 120/35/1 166/139/1 48/146/1
f 10/147/1 169/144/1 120/35/1
f 170/141/1 31/148/1 73/149/1
f 90/38/1 73/149/1 9/150/1
f 48/146/1 170/141/1 90/38/1
f 171/138/1 3/151/1 103/152/1
f 167/140/1 103/152/1 31/148/1
f 60/145/1 171/138/1 167/140/1
f 172/135/2 59/153/2 162/130/2
f 119/32/2 162/130/2 47/154/2
f 14/155/2 172/135/2 119/32/2
f 173/132/2 35/156/2 77/124/2
f 89/47/2 77/124/2 13/157/2
f 47/154/2 173/132/2 89/47/2
f 174/129/2 5/158/2 107/7/2
f 163/131/2 107/7/2 35/156/2
f 59/153/2 174/129/2 163/131/2
f 175/126/3 58/159/3 158/121/3
f 118/29/3 158/121/3 46/160/3
f 13/157/3 175/126/3 118/29/3
f 176/123/3 43/161/3 115/79/3
f 88/56/3 115/79/3 18/162/3
f 46/160/3 176/123/3 88/56/3
f 177/120/3 15/163/3 85/22/3
f 159/122/3 85/22/3 43/161/3
f 58/159/3 177/120/3 159/122/3
f 178/117/4 57/164/4 154/112/4
f 114/20/4 154/112/4 42/165/4
f 10/166/4 178/117/4 114/20/4
f 179/114/4 39/167/4 111/106/4
f 84/83/4 111/106/4 17/168/4
f 42/165/4 179/114/4 84/83/4
f 180/111/4 16/169/4 81/13/4
f 155/113/4 81/13/4 39/167/4
f 57/164/4 180/111/4 155/113/4
f 181/108/4 56/170/4 150/103/4
f 113/17/4 150/103/4 41/171/4
f 17/168/4 181/108/4 113/17/4
f 182/105/4 27/172/4 99/133/4
f 83/92/4 99/133/4 14/155/4
f 41/171/4 182/105/4 83/92/4
f 183/102/4 6/173/4 69/4/4
f 151/104/4 69/4/4 27/172/4
f 56/170/4 183/102/4 151/104/4
f 184/99/4 55/174/4 146/94/4
f 96/175/4 146/94/4 24/176/4
f 12/177/4 184/99/4 96/175/4
f 185/96/4 36/178/4 108/52/4
f 66/179/4 108/52/4 8/180/4
f 24/176/4 185/96/4 66/179/4
f 186/93/4 14/155/4 78/31/4
f 147/95/4 78/31/4 36/178/4
f 55/174/4 186/93/4 147/95/4
f 187/90/4 54/181/4 142/85/4
f 106/182/4 142/85/4 34/183/4
f 4/184/4 187/90/4 106/182/4
f 188/87/4 40/185/4 112/97/4
f 76/186/4 112/97/4 12/177/4
f 34/183/4 188/87/4 76/186/4
f 189/84/4 17/168/4 82/16/4
f 143/86/4 82/16/4 40/185/4
f 54/181/4 189/84/4 143/86/4
f 190/81/3 53/187/3 138/76/3
f 117/26/3 138/76/3 45/188/3
f 18/162/3 190/81/3 117/26/3
f 191/78/3 19/189/3 91/190/3
f 87/65/3 91/190/3 9/191/3
f 45/188/3 191/78/3 87/65/3
f 192/75/3 1/192/3 61/193/3
f 139/77/3 61/193/3 19/189/3
f 53/187/3 192/75/3 139/77/3
f 193/72/3 52/194/3 134/67/3
f 95/195/3 134/67/3 23/196/3
f 11/197/3 193/72/3 95/195/3
f 194/69/3 31/198/3 103/199/3
f 65/200/3 103/199/3 3/201/3
f 23/196/3 194/69/3 65/200/3
f 195/66/3 9/191/3 73/202/3
f 135/68/3 73/202/3 31/198/3
f 52/194/3 195/66/3 135/68/3
f 196/63/3 51/203/3 130/58/3
f 105/204/3 130/58/3 33/205/3
f 7/206/3 196/63/3 105/204/3
f 197/60/3 44/207/3 116/70/3
f 75/208/3 116/70/3 11/197/3
f 33/205/3 197/60/3 75/208/3
f 198/57/3 18/162/3 86/25/3
f 131/59/3 86/25/3 44/207/3
f 51/203/3 198/57/3 131/59/3
f 199/54/2 50/209/2 126/49/2
f 97/210/2 126/49/2 25/211/2
f 8/180/2 199/54/2 97/210/2
f 200/51/2 26/212/2 68/61/2
f 67/213/2 68/61/2 7/206/2
f 25/211/2 200/51/2 67/213/2
f 201/48/2 13/157/2 98/28/2
f 127/50/2 98/28/2 26/212/2
f 50/209/2 201/48/2 127/50/2
f 202/45/1 49/214/1 122/40/1
f 62/215/1 122/40/1 20/216/1
f 2/217/1 202/45/1 62/215/1
f 203/42/1 19/218/1 61/219/1
f 92/220/1 61/219/1 1/221/1
f 20/216/1 203/42/1 92/220/1
f 204/39/1 9/150/1 91/222/1
f 123/41/1 91/222/1 19/218/1
f 49/214/1 204/39/1 123/41/1
f 205/36/1 48/146/1 121/37/1
f 124/44/1 121/37/1 49/214/1
f 32/223/1 205/36/1 124/44/1
f 206/33/2 47/154/2 125/46/2
f 128/53/2 125/46/2 50/209/2
f 36/178/2 206/33/2 128/53/2
f 207/30/3 46/160/3 129/55/3
f 132/62/3 129/55/3 51/203/3
f 26/212/3 207/30/3 132/62/3
f 208/27/3 45/188/3 133/64/3
f 136/71/3 133/64/3 52/194/3
f 44/207/3 208/27/3 136/71/3
f 209/24/3 37/224/3 137/73/3
f 140/80/3 137/73/3 53/187/3
f 43/161/3 209/24/3 140/80/3
f 210/21/4 42/165/4 141/82/4
f 144/89/4 141/82/4 54/181/4
f 21/225/4 210/21/4 144/89/4
f 211/18/4 41/171/4 145/91/4
f 148/98/4 145/91/4 55/174/4
f 40/185/4 211/18/4 148/98/4
f 212/15/4 38/226/4 149/100/4
f 152/107/4 149/100/4 56/170/4
f 39/167/4 212/15/4 152/107/4
f 213/12/4 30/227/4 153/109/4
f 156/116/4 153/109/4 57/164/4
f 32/228/4 213/12/4 156/116/4
f 214/9/3 29/229/3 157/118/3
f 160/125/3 157/118/3 58/159/3
f 35/156/3 214/9/3 160/125/3
f 215/6/2 28/230/2 161/127/2
f 164/134/2 161/127/2 59/153/2
f 27/172/2 215/6/2 164/134/2
f 216/3/1 22/231/1 165/136/1
f 168/143/1 165/136/1 60/145/1
f 21/232/1 216/3/1 168/143/1
f 63/1/1 4/233/1 94/2/1
f 69/4/2 6/173/2 100/5/2
f 107/7/3 5/158/3 71/8/3
f 104/10/4 2/234/4 72/11/4
f 81/13/4 16/169/4 80/14/4
f 82/16/4 17/168/4 113/17/4
f 93/19/4 10/166/4 114/20/4
f 85/22/3 15/163/3 79/23/3
f 86/25/3 18/162/3 117/26/3
f 98/28/3 13/157/3 118/29/3
f 78/31/2 14/155/2 119/32/2
f 74/34/1 10/147/1 120/35/1
f 121/37/1 48/146/1 90/38/1
f 122/40/1 49/214/1 123/41/1
f 104/43/1 32/223/1 124/44/1
f 125/46/2 47/154/2 89/47/2
f 126/49/2 50/209/2 127/50/2
f 108/52/2 36/178/2 128/53/2
f 129/55/3 46/160/3 88/56/3
f 130/58/3 51/203/3 131/59/3
f 68/61/3 26/212/3 132/62/3
f 133/64/3 45/188/3 87/65/3
f 134/67/3 52/194/3 135/68/3
f 116/70/3 44/207/3 136/71/3
f 137/73/3 37/224/3 109/74/3
f 138/76/3 53/187/3 139/77/3
f 115/79/3 43/161/3 140/80/3
f 141/82/4 42/165/4 84/83/4
f 142/85/4 54/181/4 143/86/4
f 63/88/4 21/225/4 144/89/4
f 145/91/4 41/171/4 83/92/4
f 146/94/4 55/174/4 147/95/4
f 112/97/4 40/185/4 148/98/4
f 149/100/4 38/226/4 110/101/4
f 150/103/4 56/170/4 151/104/4
f 111/106/4 39/167/4 152/107/4
f 153/109/4 30/227/4 102/110/4
f 154/112/4 57/164/4 155/113/4
f 74/115/4 32/228/4 156/116/4
f 157/118/3 29/229/3 101/119/3
f 158/121/3 58/159/3 159/122/3
f 77/124/3 35/156/3 160/125/3
f 161/127/2 28/230/2 70/128/2
f 162/130/2 59/153/2 163/131/2
f 99/133/2 27/172/2 164/134/2
f 165/136/1 22/231/1 64/137/1
f 166/139/1 60/145/1 167/140/1
f 93/142/1 21/232/1 168/143/1
f 169/144/1 168/143/1 60/145/1
f 120/35/1 169/144/1 166/139/1
f 10/147/1 93/142/1 169/144/1
f 170/141/1 167/140/1 31/148/1
f 90/38/1 170/141/1 73/149/1
f 48/146/1 166/139/1 170/141/1
f 171/138/1 64/137/1 3/151/1
f 167/140/1 171/138/1 103/152/1
f 60/145/1 165/136/1 171/138/1
f 172/135/2 164/134/2 59/153/2
f 119/32/2 172/135/2 162/130/2
f 14/155/2 99/133/2 172/135/2
f 173/132/2 163/131/2 35/156/2
f 89/47/2 173/132/2 77/124/2
f 47/154/2 162/130/2 173/132/2
f 174/129/2 70/128/2 5/158/2
f 163/131/2 174/129/2 107/7/2
f 59/153/2 161/127/2 174/129/2
f 175/126/3 160/125/3 58/159/3
f 118/29/3 175/126/3 158/121/3
f 13/157/3 77/124/3 175/126/3
f 176/123/3 159/122/3 43/161/3
f 88/56/3 176/123/3 115/79/3
f 46/160/3 158/121/3 176/123/3
f 177/120/3 101/119/3 15/163/3
f 159/122/3 177/120/3 85/22/3
f 58/159/3 157/118/3 177/120/3
f 178/117/4 156/116/4 57/164/4
f 114/20/4 178/117/4 154/112/4
f 10/166/4 74/115/4 178/117/4
f 179/114/4 155/113/4 39/167/4
f 84/83/4 179/114/4 111/106/4
f 42/165/4 154/112/4 179/114/4
f 180/111/4 102/110/4 16/169/4
f 155/113/4 180/111/4 81/13/4
f 57/164/4 153/109/4 180/111/4
f 181/108/4 152/107/4 56/170/4
f 113/17/4 181/108/4 150/103/4
f 17/168/4 111/106/4 181/108/4
f 182/105/4 151/104/4 27/172/4
f 83/92/4 182/105/4 99/133/4
f 41/171/4 150/103/4 182/105/4
f 183/102/4 110/101/4 6/173/4
f 151/104/4 183/102/4 69/4/4
f 56/170/4 149/100/4 183/102/4
f 184/99/4 148/98/4 55/174/4
f 96/175/4 184/99/4 146/94/4
f 12/177/4 112/97/4 184/99/4
f 185/96/4 147/95/4 36/178/4
f 66/179/4 185/96/4 108/52/4
f 24/176/4 146/94/4 185/96/4
f 186/93/4 83/92/4 14/155/4
f 147/95/4 186/93/4 78/31/4
f 55/174/4 145/91/4 186/93/4
f 187/90/4 144/89/4 54/181/4
f 106/182/4 187/90/4 142/85/4
f 4/184/4 63/88/4 187/90/4
f 188/87/4 143/86/4 40/185/4
f 76/186/4 188/87/4 112/97/4
f 34/183/4 142/85/4 188/87/4
f 189/84/4 84/83/4 17/168/4
f 143/86/4 189/84/4 82/16/4
f 54/181/4 141/82/4 189/84/4
f 190/81/3 140/80/3 53/187/3
f 117/26/3 190/81/3 138/76/3
f 18/162/3 115/79/3 190/81/3
f 191/78/3 139/77/3 19/189/3
f 87/65/3 191/78/3 91/190/3
f 45/188/3 138/76/3 191/78/3
f 192/75/3 109/74/3 1/192/3
f 139/77/3 192/75/3 61/193/3
f 53/187/3 137/73/3 192/75/3
f 193/72/3 136/71/3 52/194/3
f 95/195/3 193/72/3 134/67/3
f 11/197/3 116/70/3 193/72/3
f 194/69/3 135/68/3 31/198/3
f 65/200/3 194/69/3 103/199/3
f 23/196/3 134/67/3 194/69/3
f 195/66/3 87/65/3 9/191/3
f 135/68/3 195/66/3 73/202/3
f 52/194/3 133/64/3 195/66/3
f 196/63/3 132/62/3 51/203/3
f 105/204/3 196/63/3 130/58/3
f 7/206/3 68/61/3 196/63/3
f 197/60/3 131/59/3 44/207/3
f 75/208/3 197/60/3 116/70/3
f 33/205/3 130/58/3 197/60/3
f 198/57/3 88/56/3 18/162/3
f 131/59/3 198/57/3 86/25/3
f 51/203/3 129/55/3 198/57/3
f 199/54/2 128/53/2 50/209/2
f 97/210/2 199/54/2 126/49/2
f 8/180/2 108/52/2 199/54/2
f 200/51/2 127/50/2 26/212/2
f 67/213/2 200/51/2 68/61/2
f 25/211/2 126/49/2 200/51/2
f 201/48/2 89/47/2 13/157/2
f 127/50/2 201/48/2 98/28/2
f 50/209/2 125/46/2 201/48/2
f 202/45/1 124/44/1 49/214/1
f 62/215/1 202/45/1 122/40/1
f 2/217/1 104/43/1 202/45/1
f 203/42/1 123/41/1 19/218/1
f 92/220/1 203/42/1 61/219/1
f 20/216/1 122/40/1 203/42/1
f 204/39/1 90/38/1 9/150/1
f 123/41/1 204/39/1 91/222/1
f 49/214/1 121/37/1 204/39/1
f 205/36/1 120/35/1 48/146/1
f 124/44/1 205/36/1 121/37/1
f 32/223/1 74/34/1 205/36/1
f 206/33/2 119/32/2 47/154/2
f 128/53/2 206/33/2 125/46/2
f 36/178/2 78/31/2 206/33/2
f 207/30/3 118/29/3 46/160/3
f 132/62/3 207/30/3 129/55/3
f 26/212/3 98/28/3 207/30/3
f 208/27/3 117/26/3 45/188/3
f 136/71/3 208/27/3 133/64/3
f 44/207/3 86/25/3 208/27/3
f 209/24/3 79/23/3 37/224/3
f 140/80/3 209/24/3 137/73/3
f 43/161/3 85/22/3 209/24/3
f 210/21/4 114/20/4 42/165/4
f 144/89/4 210/21/4 141/82/4
f 21/225/4 93/19/4 210/21/4
f 211/18/4 113/17/4 41/171/4
f 148/98/4 211/18/4 145/91/4
f 40/185/4 82/16/4 211/18/4
f 212/15/4 80/14/4 38/226/4
f 152/107/4 212/15/4 149/100/4
f 39/167/4 81/13/4 212/15/4
f 213/12/4 72/11/4 30/227/4
f 156/116/4 213/12/4 153/109/4
f 32/228/4 104/10/4 213/12/4
f 214/9/3 71/8/3 29/229/3
f 160/125/3 214/9/3 157/118/3
f 35/156/3 107/7/3 214/9/3
f 215/6/2 100/5/2 28/230/2
f 164/134/2 215/6/2 161/127/2
f 27/172/2 69/4/2 215/6/2
f 216/3/1 94/2/1 22/231/1
f 168/143/1 216/3/1 165/136/1
